# Blender v2.79 (sub 0) OBJ File: ''
# www.blender.org
mtllib RockNew2.mtl
o rock_Cube.029
v 8.651639 1.674737 -2.634648
v 8.638394 1.422625 -2.930789
v 8.375393 1.546116 -2.027121
v 9.793863 1.349912 -3.051041
v 9.307009 0.686801 -3.103407
v 10.632426 1.490183 0.512254
v 11.347733 1.450683 -0.609769
v 10.990329 1.353497 0.304882
v 9.818649 1.282061 0.957656
v 9.004491 1.277555 0.875939
v 10.106355 -0.210877 -0.543866
v 9.747327 2.377341 -0.090668
v 9.750998 2.638428 -0.556962
v 9.197513 2.391040 -0.284916
v 9.811762 2.554214 -1.133456
v 9.253915 1.951445 -1.773529
v 9.312797 2.557842 -0.844481
v 9.575431 -0.313236 -1.346822
v 8.814771 -0.220942 -0.598412
v 11.234839 1.704736 -1.208571
v 11.441577 1.297410 -1.422320
v 11.481087 1.398327 -0.990039
v 8.663427 1.355704 0.549064
v 8.173944 1.347161 -0.282784
v 10.789716 0.907118 -2.476003
v 10.426592 1.259061 -3.106016
v 8.968829 -0.185319 -2.377606
v 9.194336 1.824140 -2.722826
v 9.734978 1.973685 -2.039965
v 10.273312 1.437443 -2.809489
v 9.033243 1.962484 -2.235356
v 8.103167 1.386867 -0.826775
v 8.643901 1.424721 -1.332379
v 8.122604 1.424401 -1.751661
v 7.692451 1.228470 -1.437391
v 8.470778 1.724552 -0.520864
v 8.020749 -0.116354 -1.089182
v 7.506134 0.818532 -0.779129
v 7.551349 0.413199 -1.200462
v 7.831705 0.110435 -0.471374
v 7.518766 0.915169 -1.349050
v 7.754484 0.045450 -1.456228
v 11.789938 -0.094502 -2.465598
v 11.811515 0.464120 -2.155468
v 11.900518 0.123105 -2.456247
v 10.552578 0.482401 -3.133011
v 10.847718 0.595386 -2.445520
v 8.497318 -0.179700 0.126821
v 8.396725 -0.058754 0.265771
v 8.804420 0.896100 0.925949
v 8.226276 0.966348 0.021507
v 11.467598 -0.067074 -1.364566
v 10.579981 -0.192064 -1.872336
v 11.148640 -0.108571 -0.556011
v 11.592249 0.931868 -1.059922
v 11.706885 0.252065 -1.334313
v 12.044144 0.169828 -2.036251
v 11.564837 0.727644 -1.429499
v 11.765771 0.342686 -0.819771
v 9.562877 -0.141371 0.483291
v 10.033637 0.014237 0.715203
v 9.325890 0.873825 1.128482
v 10.524144 0.000043 0.407959
v 9.998966 -0.196747 0.230576
v 11.540896 0.014267 -0.653749
v 11.212014 0.476764 -0.122628
v 9.837818 -0.131241 -3.464224
v 10.203612 0.591993 -3.448240
v 9.137400 0.157888 -3.548850
v 8.232156 -0.085405 -2.117633
v 8.510009 -0.122911 -2.866946
v 8.195018 0.871340 -2.195718
v 10.423566 2.228521 -0.231622
v 10.344403 2.430801 -0.809194
v 10.454342 1.590386 -2.211600
v 8.626756 0.739681 -3.043103
v 8.936706 -0.130025 -3.375444
v 10.232999 1.276413 -3.256905
v 11.088443 1.819674 -0.673246
v 7.882523 -0.025106 -0.564709
v 8.965016 0.038544 0.714439
v 9.895062 -0.040372 -3.593644
v 10.659279 0.852482 0.728500
v 11.941216 -0.079637 -2.004000
vt 0.883007 0.715185
vt 0.903100 0.789266
vt 0.830746 0.758467
vt 0.985715 0.088539
vt 0.939968 0.029098
vt 0.987384 0.012839
vt 0.870260 0.499945
vt 0.821653 0.478533
vt 0.870260 0.402135
vt 0.274082 0.374608
vt 0.267751 0.458350
vt 0.181831 0.460537
vt 0.190710 0.318737
vt 0.201896 0.267206
vt 0.687645 0.610500
vt 0.632124 0.693193
vt 0.588148 0.677944
vt 0.582278 0.758906
vt 0.686962 0.775651
vt 0.193747 0.696317
vt 0.165593 0.743683
vt 0.128106 0.687760
vt 0.553796 0.315324
vt 0.607366 0.247633
vt 0.603753 0.413311
vt 0.237806 0.488492
vt 0.326094 0.534766
vt 0.287575 0.549187
vt 0.893855 0.376458
vt 0.855833 0.368570
vt 0.874121 0.295968
vt 0.855763 0.238637
vt 0.893032 0.222181
vt 0.026312 0.221006
vt 0.148777 0.224478
vt 0.016191 0.293580
vt 0.100179 0.313853
vt 0.100077 0.368771
vt 0.835497 0.301973
vt 0.793203 0.221786
vt 0.823112 0.137089
vt 0.485301 0.393761
vt 0.120063 0.111523
vt 0.748400 0.927274
vt 0.718256 0.845965
vt 0.748400 0.819842
vt 0.154639 0.074775
vt 0.172955 0.086230
vt 0.325599 0.608659
vt 0.279388 0.790304
vt 0.229873 0.730181
vt 0.306668 0.734522
vt 0.897798 0.476776
vt 0.921969 0.466594
vt 0.924992 0.528982
vt 0.175948 0.255882
vt 0.236257 0.181859
vt 0.128602 0.391321
vt 0.146691 0.455889
vt 0.857832 0.068067
vt 0.893855 0.077101
vt 0.877906 0.119967
vt 0.326094 0.860016
vt 0.277921 0.902588
vt 0.796259 0.070130
vt 0.787564 0.794165
vt 0.777215 0.764007
vt 0.805513 0.736230
vt 0.571200 0.515673
vt 0.546935 0.550572
vt 0.502738 0.488720
vt 0.765172 0.624741
vt 0.779068 0.638302
vt 0.756966 0.704045
vt 0.718256 0.664931
vt 0.412974 0.282539
vt 0.404451 0.275604
vt 0.479472 0.032197
vt 0.297889 0.219022
vt 0.369635 0.304158
vt 0.289082 0.268556
vt 0.851287 0.814943
vt 0.872473 0.872012
vt 0.830746 0.987161
vt 0.285196 0.046105
vt 0.331233 0.037432
vt 0.606228 0.533800
vt 0.652102 0.454203
vt 0.110945 0.859141
vt 0.076142 0.787788
vt 0.230028 0.808449
vt 0.180044 0.914192
vt 0.552833 0.073643
vt 0.518905 0.186990
vt 0.510225 0.012839
vt 0.723912 0.497694
vt 0.780423 0.462904
vt 0.796420 0.504095
vt 0.600255 0.064578
vt 0.606642 0.114356
vt 0.886689 0.987161
vt 0.243280 0.066443
vt 0.274287 0.171616
vt 0.516813 0.600424
vt 0.542581 0.616412
vt 0.466745 0.635282
vt 0.675857 0.317643
vt 0.691457 0.395149
vt 0.658958 0.261450
vt 0.693023 0.848653
vt 0.555593 0.873680
vt 0.509418 0.835743
vt 0.670969 0.194938
vt 0.484066 0.732511
vt 0.411141 0.688690
vt 0.379218 0.308309
vt 0.379218 0.418529
vt 0.345660 0.398942
vt 0.452790 0.452926
vt 0.418909 0.398162
vt 0.857160 0.576249
vt 0.903100 0.598357
vt 0.833623 0.674921
vt 0.554182 0.578545
vt 0.590985 0.594766
vt 0.777565 0.103798
vt 0.762918 0.193308
vt 0.736722 0.140218
vt 0.693023 0.576249
vt 0.131823 0.510860
vt 0.145471 0.608327
vt 0.060538 0.550293
vt 0.012616 0.350543
vt 0.895493 0.450382
vt 0.924992 0.402135
vt 0.201734 0.240488
vt 0.729943 0.211458
vt 0.774509 0.283218
vt 0.817799 0.012839
vt 0.358414 0.049535
vt 0.350175 0.023024
vt 0.319625 0.012839
vt 0.661487 0.467646
vt 0.555182 0.044365
vt 0.589544 0.037197
vt 0.805513 0.576249
vt 0.737276 0.427676
vt 0.796420 0.402135
vt 0.716689 0.465290
vt 0.282396 0.028001
vt 0.300569 0.043345
vt 0.213055 0.058397
vt 0.691457 0.257928
vt 0.716689 0.134738
vt 0.941907 0.178986
vt 0.919088 0.065613
vt 0.987384 0.208511
vt 0.012616 0.675318
vt 0.404451 0.738374
vt 0.372167 0.462814
vn -0.8979 0.1980 -0.3931
vn -0.6523 0.4208 -0.6305
vn -0.4343 0.8438 0.3153
vn -0.0745 0.1631 -0.9838
vn -0.3549 0.3297 -0.8748
vn 0.5478 0.6656 0.5068
vn 0.3942 0.3100 0.8652
vn -0.3352 0.2932 0.8954
vn 0.0025 -0.9922 0.1249
vn 0.2821 0.8362 0.4704
vn 0.4128 0.8758 0.2502
vn -0.3098 0.9268 0.2124
vn 0.4457 0.7828 -0.4342
vn -0.3110 0.8121 -0.4937
vn -0.0811 0.9850 -0.1524
vn -0.7425 0.5815 -0.3325
vn -0.1523 -0.9878 -0.0330
vn 0.4439 0.7835 -0.4348
vn 0.6339 0.7734 0.0073
vn 0.8282 0.5243 -0.1981
vn -0.6596 0.6476 0.3815
vn -0.6971 0.6840 0.2151
vn 0.7273 0.6854 -0.0363
vn 0.7712 0.5204 -0.3666
vn -0.3009 0.7328 -0.6104
vn 0.2783 0.8684 -0.4105
vn -0.7317 0.6663 0.1438
vn -0.7015 0.6769 0.2230
vn -0.0327 0.9987 0.0398
vn -0.8648 0.4978 0.0652
vn -0.1125 -0.9932 -0.0296
vn -0.4012 -0.9094 -0.1098
vn -0.8842 -0.4399 0.1573
vn -0.9966 -0.0750 -0.0348
vn -0.8478 -0.5242 0.0803
vn -0.8818 -0.1856 -0.4335
vn 0.2591 -0.8406 -0.4756
vn 0.6396 -0.1382 -0.7561
vn 0.2023 0.9488 -0.2428
vn 0.4724 0.6491 -0.5962
vn -0.3251 -0.9424 0.0783
vn -0.1302 -0.9915 -0.0006
vn -0.5602 -0.2958 0.7737
vn -0.7383 -0.0471 0.6728
vn 0.0903 -0.9922 0.0864
vn 0.6670 -0.5480 0.5048
vn 0.3151 -0.9460 0.0758
vn 0.1245 -0.9922 0.0092
vn 0.2093 0.9398 -0.2700
vn 0.7927 0.1788 -0.5828
vn 0.9360 0.1776 0.3038
vn -0.1084 -0.9007 0.4208
vn -0.0233 -0.9842 0.1755
vn 0.2769 -0.2215 0.9350
vn 0.4845 -0.3741 0.7908
vn -0.3575 -0.2862 0.8890
vn 0.2563 -0.9279 0.2706
vn 0.7865 0.1851 0.5892
vn 0.9280 0.0550 0.3685
vn 0.8230 -0.0669 0.5640
vn 0.7112 -0.3434 0.6134
vn -0.0593 -0.8044 -0.5911
vn -0.0172 0.6473 -0.7620
vn -0.1075 -0.9939 -0.0259
vn -0.4334 -0.8937 -0.1160
vn -0.0793 -0.9955 -0.0526
vn -0.9367 -0.0644 -0.3441
vn -0.8815 0.0912 -0.4633
vn 0.7699 0.6267 0.1207
vn -0.5499 0.8319 -0.0739
vn -0.0933 0.1463 -0.9848
vn 0.7372 0.5782 0.3495
vn 0.6540 0.6553 0.3779
vn 0.6024 0.7755 0.1890
vn 0.2899 0.7187 0.6320
vn 0.5600 0.2871 0.7772
vn 0.2877 0.0529 0.9563
vn 0.2082 0.6833 0.6998
vn -0.0763 0.6868 0.7228
vn -0.0905 0.4754 0.8751
vn 0.0070 -0.9998 0.0192
vn -0.0148 -0.9986 0.0503
vn -0.1489 0.8633 0.4822
vn -0.6870 0.7229 0.0740
vn -0.2142 0.7225 0.6574
vn -0.4113 0.6910 0.5944
vn 0.2954 0.7930 -0.5328
vn -0.2896 0.8098 -0.5102
vn -0.7214 0.5853 -0.3701
vn 0.2868 0.9518 -0.1088
vn 0.0421 -0.9882 -0.1474
vn 0.0982 -0.9933 0.0617
vn 0.8290 0.1005 -0.5501
vn 0.6042 0.5886 -0.5372
vn 0.6202 0.5287 -0.5795
vn -0.8257 0.2282 0.5158
vn -0.5850 0.3994 0.7059
vn 0.1040 0.9328 -0.3451
vn -0.7243 0.3669 0.5837
vn 0.8879 0.1218 -0.4437
vn 0.0305 -0.9982 -0.0524
vn -0.0068 -0.9985 -0.0551
vn 0.2040 0.7183 -0.6652
vn -0.0561 0.5193 -0.8527
vn 0.0557 0.9652 -0.2555
vn -0.0261 0.9990 0.0363
vn -0.3011 0.8866 -0.3511
vn -0.5133 0.8163 0.2648
vn 0.3794 0.8623 -0.3355
vn -0.5181 0.8455 0.1291
vn -0.4238 0.8165 -0.3921
vn -0.1947 0.9507 0.2414
vn -0.3968 0.9175 0.0289
vn -0.5279 -0.8492 0.0086
vn -0.9193 -0.3283 0.2172
vn 0.4901 0.0441 -0.8705
vn 0.0828 -0.9966 0.0050
vn 0.6643 0.1532 -0.7316
vn 0.8973 0.1599 -0.4115
vn 0.8725 -0.4117 -0.2631
vn 0.8011 0.4997 -0.3295
vn -0.8206 -0.0003 0.5714
vn -0.2674 -0.8143 0.5152
vn -0.5355 -0.7896 0.2996
vn 0.8122 -0.5834 -0.0057
vn -0.7156 -0.5578 0.4205
vn 0.8479 0.4771 0.2312
vn 0.1375 -0.9905 0.0034
vn 0.9581 0.2303 -0.1703
vn 0.8480 -0.2928 0.4417
vn 0.9596 0.2100 -0.1872
vn 0.9572 0.2500 -0.1458
vn 0.1638 -0.9087 0.3839
vn -0.7691 0.5639 -0.3009
vn 0.9356 0.3284 0.1297
vn -0.7955 -0.1093 -0.5960
vn -0.0189 -0.8121 0.5832
vn -0.0107 -0.4404 0.8977
vn 0.0980 -0.9947 0.0317
vn 0.3559 -0.8746 0.3291
vn 0.6978 -0.2671 0.6647
vn 0.7498 -0.1935 0.6328
vn -0.1634 -0.4229 -0.8913
vn -0.2045 0.6681 -0.7154
vn -0.3211 0.2677 -0.9084
vn 0.0009 0.2237 -0.9747
vn -0.7353 -0.0031 -0.6778
vn -0.7516 0.2438 -0.6129
vn -0.8890 0.0270 -0.4571
usemtl Material.009
s off
f 72/1/1 34/2/1 2/3/1
f 72/4/2 35/5/2 34/6/2
f 3/7/3 33/8/3 31/9/3
f 5/10/4 76/11/4 2/12/4
f 4/13/5 78/14/5 5/10/5
f 73/15/6 6/16/6 8/17/6
f 83/18/7 6/16/7 9/19/7
f 10/20/8 50/21/8 62/22/8
f 18/23/9 11/24/9 19/25/9
f 73/26/10 13/27/10 12/28/10
f 73/29/11 74/30/11 13/31/11
f 13/31/12 17/32/12 14/33/12
f 74/34/13 75/35/13 15/36/13
f 29/37/14 16/38/14 15/36/14
f 17/32/15 13/31/15 15/39/15
f 16/40/16 33/41/16 17/32/16
f 19/25/17 27/42/17 18/23/17
f 20/43/18 75/35/18 74/34/18
f 74/44/19 79/45/19 20/46/19
f 20/43/20 22/47/20 21/48/20
f 14/49/21 24/50/21 23/51/21
f 14/49/22 36/52/22 24/50/22
f 26/53/23 30/54/23 25/55/23
f 30/56/24 75/35/24 25/57/24
f 28/58/25 2/12/25 1/59/25
f 28/58/26 29/37/26 30/56/26
f 32/60/27 24/61/27 36/62/27
f 35/63/28 38/64/28 24/50/28
f 32/60/29 33/41/29 34/65/29
f 35/66/30 41/67/30 38/68/30
f 27/42/31 19/25/31 37/69/31
f 37/69/32 42/70/32 70/71/32
f 80/72/33 40/73/33 39/74/33
f 38/68/34 41/67/34 39/74/34
f 42/75/35 80/72/35 39/74/35
f 41/67/36 42/75/36 39/74/36
f 67/76/37 82/77/37 43/78/37
f 46/79/38 82/80/38 68/81/38
f 46/82/39 47/83/39 44/84/39
f 44/85/40 45/86/40 46/79/40
f 80/87/41 37/69/41 48/88/41
f 37/69/42 19/25/42 48/88/42
f 49/89/43 81/90/43 50/21/43
f 51/91/44 38/64/44 40/92/44
f 52/93/45 53/94/45 84/95/45
f 84/96/46 56/97/46 52/98/46
f 52/93/47 65/99/47 54/100/47
f 54/100/48 18/23/48 53/94/48
f 44/84/49 47/83/49 58/101/49
f 58/102/50 47/103/50 21/48/50
f 22/104/51 7/105/51 55/106/51
f 60/107/52 81/108/52 48/88/52
f 48/88/53 64/109/53 60/107/53
f 62/110/54 61/111/54 83/18/54
f 61/111/55 63/112/55 83/18/55
f 50/21/56 81/90/56 62/22/56
f 54/100/57 63/113/57 64/109/57
f 66/114/58 59/115/58 7/105/58
f 66/114/59 7/105/59 8/17/59
f 66/114/60 8/17/60 83/18/60
f 83/18/61 63/112/61 66/114/61
f 67/116/62 77/117/62 82/80/62
f 76/11/63 5/10/63 69/118/63
f 71/119/64 27/42/64 37/69/64
f 37/69/65 70/71/65 71/119/65
f 77/120/66 27/42/66 71/119/66
f 71/121/67 70/122/67 72/1/67
f 72/1/68 2/3/68 76/123/68
f 7/105/69 22/104/69 20/124/69 79/125/69
f 3/126/70 31/127/70 1/128/70
f 4/13/71 5/10/71 2/12/71
f 8/17/72 7/105/72 79/125/72
f 8/17/73 79/125/73 73/15/73
f 73/15/74 79/125/74 74/129/74
f 73/26/75 12/28/75 6/130/75
f 8/17/76 6/16/76 83/18/76
f 9/131/77 62/22/77 83/132/77
f 9/131/78 6/130/78 12/28/78
f 9/131/79 12/28/79 10/20/79
f 10/20/80 62/22/80 9/131/80
f 19/25/81 11/24/81 64/109/81
f 19/25/82 64/109/82 48/88/82
f 12/28/83 13/27/83 14/49/83
f 14/33/84 17/32/84 36/62/84
f 14/49/85 10/20/85 12/28/85
f 14/49/86 23/51/86 10/20/86
f 15/36/87 75/35/87 29/37/87
f 15/36/88 16/38/88 17/133/88
f 17/32/89 33/41/89 36/62/89
f 15/39/90 13/31/90 74/30/90
f 18/23/91 27/42/91 53/94/91
f 18/23/92 54/100/92 11/24/92
f 21/48/93 47/103/93 25/57/93
f 20/43/94 21/48/94 75/35/94
f 21/48/95 25/57/95 75/35/95
f 23/51/96 24/50/96 51/91/96 50/21/96
f 23/51/97 50/21/97 10/20/97
f 30/54/98 26/53/98 78/134/98 4/135/98
f 24/50/99 38/64/99 51/91/99
f 25/57/100 47/103/100 26/136/100
f 53/94/101 27/42/101 67/76/101 43/78/101
f 27/42/102 77/120/102 67/76/102
f 28/58/103 30/56/103 4/13/103
f 28/58/104 4/13/104 2/12/104
f 28/137/105 31/127/105 29/138/105
f 29/138/106 31/127/106 16/40/106
f 28/137/107 1/128/107 31/127/107
f 31/127/108 33/41/108 16/40/108
f 29/37/109 75/35/109 30/56/109
f 32/60/110 35/139/110 24/61/110
f 32/60/111 36/62/111 33/41/111
f 33/41/112 3/126/112 34/65/112
f 32/60/113 34/65/113 35/139/113
f 37/69/114 80/87/114 42/70/114
f 39/74/115 40/73/115 38/68/115
f 82/80/116 46/79/116 45/86/116 43/140/116
f 43/78/117 84/95/117 53/94/117
f 78/14/118 26/136/118 46/79/118 68/81/118
f 46/79/119 26/136/119 47/103/119
f 84/141/120 43/140/120 45/86/120 57/142/120
f 44/85/121 57/142/121 45/86/121
f 40/92/122 49/89/122 50/21/122 51/91/122
f 48/88/123 81/108/123 49/143/123
f 48/88/124 49/143/124 80/87/124
f 65/99/125 52/93/125 56/144/125 59/145/125
f 40/73/126 80/72/126 49/146/126
f 44/147/127 58/148/127 56/97/127 57/149/127
f 52/93/128 54/100/128 53/94/128
f 59/150/129 56/151/129 58/102/129 55/152/129
f 56/97/130 84/96/130 57/149/130
f 55/152/131 58/102/131 21/48/131
f 21/48/132 22/47/132 55/152/132
f 61/153/133 60/107/133 64/109/133 63/113/133
f 3/126/134 1/128/134 2/154/134 34/65/134
f 55/106/135 7/105/135 59/115/135
f 42/155/136 41/156/136 72/4/136 70/157/136
f 60/107/137 61/153/137 81/108/137
f 62/22/138 81/90/138 61/158/138
f 54/100/139 64/109/139 11/24/139
f 54/100/140 65/99/140 63/113/140
f 66/114/141 63/112/141 65/159/141
f 66/114/142 65/159/142 59/115/142
f 82/80/143 77/117/143 69/118/143
f 68/81/144 69/118/144 5/10/144
f 5/10/145 78/14/145 68/81/145
f 69/118/146 68/81/146 82/80/146
f 77/117/147 71/160/147 76/11/147 69/118/147
f 41/156/148 35/5/148 72/4/148
f 71/121/149 72/1/149 76/123/149
