# Blender v2.79 (sub 0) OBJ File: 'GlobalGameJam 2019.blend'
# www.blender.org
mtllib PineTree.mtl
o Cylinder.001_Cylinder.018
v 0.036980 -1.299475 -0.142714
v 0.036980 -0.623084 -0.142714
v 0.160574 -1.299475 -0.071357
v 0.160574 -0.623084 -0.071357
v 0.160574 -1.299475 0.071357
v 0.160574 -0.623084 0.071357
v 0.036980 -1.299475 0.142714
v 0.036980 -0.623084 0.142714
v -0.086615 -1.299475 0.071357
v -0.086615 -0.623084 0.071357
v -0.086615 -1.299475 -0.071357
v -0.086615 -0.623084 -0.071357
v -0.156310 1.589795 -0.235936
v 0.000000 2.230419 0.000000
v 0.126172 1.589795 -0.253337
v 0.282482 1.589795 -0.017400
v 0.156310 1.589795 0.235936
v -0.126172 1.589795 0.253337
v -0.282482 1.589795 0.017401
v 0.490607 0.427494 -0.444579
v -0.032812 1.471998 -0.006309
v 0.653713 0.450929 0.201390
v 0.176033 0.441960 0.666331
v -0.464754 0.409556 0.485303
v -0.627860 0.386121 -0.160666
v -0.150180 0.395089 -0.625607
v -0.257678 1.002556 -0.423108
v 0.000000 1.865038 0.000000
v 0.237583 1.002556 -0.434709
v 0.495261 1.002556 -0.011601
v 0.257678 1.002556 0.423108
v -0.237583 1.002556 0.434709
v -0.495261 1.002556 0.011602
v -0.262448 -0.075915 -0.748069
v 0.041883 1.024306 -0.005132
v 0.556508 -0.066965 -0.637071
v 0.869726 -0.049065 0.127561
v 0.363989 -0.040116 0.781197
v -0.454967 -0.049065 0.670199
v -0.768185 -0.066965 -0.094433
v 0.323775 -0.716507 -1.051832
v 0.043985 0.644507 0.007331
v 1.101142 -0.716507 -0.279945
v 0.821352 -0.716507 0.779217
v -0.235805 -0.716507 1.066494
v -1.013171 -0.716507 0.294607
v -0.733381 -0.716507 -0.764555
vt 0.600408 0.850584
vt 0.600408 0.792679
vt 0.615470 0.792679
vt 0.615470 0.850584
vt 0.309997 0.824532
vt 0.309997 0.766626
vt 0.340123 0.766626
vt 0.340123 0.824532
vt 0.355186 0.766626
vt 0.355186 0.824532
vt 0.564257 0.792679
vt 0.564257 0.850584
vt 0.534131 0.850584
vt 0.534131 0.792679
vt 0.362144 0.746488
vt 0.336070 0.760836
vt 0.309997 0.746337
vt 0.309997 0.717490
vt 0.336070 0.703143
vt 0.362144 0.717642
vt 0.519069 0.850584
vt 0.519069 0.792679
vt 0.570282 0.850584
vt 0.570282 0.792679
vt 0.309997 0.653923
vt 0.336086 0.639446
vt 0.362176 0.653923
vt 0.362176 0.682876
vt 0.336086 0.697352
vt 0.309997 0.682876
vt 0.349018 0.591224
vt 0.385359 0.633656
vt 0.309997 0.626368
vt 0.399240 0.453271
vt 0.374677 0.501953
vt 0.339745 0.453177
vt 0.309997 0.502846
vt 0.339745 0.552609
vt 0.399240 0.552703
vt 0.385359 0.558494
vt 0.513043 0.821387
vt 0.513043 0.878804
vt 0.461306 0.907511
vt 0.409568 0.878802
vt 0.409568 0.821386
vt 0.461306 0.792679
vt 0.717726 0.930521
vt 0.829548 0.846903
vt 0.839213 0.997105
vt 0.960701 0.928980
vt 0.960701 0.794272
vt 0.839213 0.727688
vt 0.717726 0.795813
vt 0.717726 0.654450
vt 0.717726 0.519280
vt 0.839523 0.451558
vt 0.961320 0.519006
vt 0.961320 0.654176
vt 0.839523 0.721897
vt 0.996519 0.260223
vt 0.911726 0.305723
vt 0.906191 0.209691
vt 0.815863 0.259491
vt 0.815863 0.359822
vt 0.906191 0.410354
vt 0.996519 0.360554
vt 0.815863 0.053147
vt 0.906425 0.002895
vt 0.996988 0.053146
vt 0.996988 0.153649
vt 0.906425 0.203901
vt 0.815863 0.153650
vt 0.003013 0.703673
vt 0.141475 0.627257
vt 0.153492 0.788073
vt 0.303972 0.705024
vt 0.303972 0.537576
vt 0.153492 0.453177
vt 0.003013 0.536225
vt 0.409568 0.703031
vt 0.409568 0.535366
vt 0.560634 0.451558
vt 0.711701 0.535415
vt 0.711701 0.703080
vt 0.560634 0.786888
vt 0.409568 0.114208
vt 0.605312 0.214398
vt 0.409568 0.335644
vt 0.609703 0.445768
vt 0.809838 0.334455
vt 0.809838 0.113019
vt 0.609703 0.002895
vt 0.403542 0.336266
vt 0.203278 0.447386
vt 0.003013 0.336262
vt 0.003013 0.114016
vt 0.203278 0.002895
vt 0.403542 0.114020
vn 0.5000 0.0000 -0.8660
vn 1.0000 0.0000 0.0000
vn 0.5000 0.0000 0.8660
vn -0.5000 0.0000 0.8660
vn 0.0000 1.0000 0.0000
vn -1.0000 0.0000 0.0000
vn -0.5000 0.0000 -0.8660
vn 0.0000 -1.0000 -0.0000
vn -0.0574 0.3573 -0.9322
vn 0.7786 0.3573 -0.5158
vn 0.8360 0.3573 0.4164
vn 0.0574 0.3573 0.9322
vn -0.7786 0.3573 0.5158
vn -0.8360 0.3573 -0.4164
vn 0.8289 0.5110 -0.2278
vn 0.5899 0.5219 0.6161
vn -0.2598 0.4905 0.8318
vn -0.8705 0.4481 0.2035
vn -0.6315 0.4371 -0.6404
vn 0.2182 0.4685 -0.8561
vn 0.0434 -0.9987 0.0253
vn -0.0210 0.4454 -0.8951
vn 0.7647 0.4454 -0.4657
vn 0.7857 0.4454 0.4294
vn 0.0210 0.4454 0.8951
vn -0.7647 0.4454 0.4657
vn -0.7857 0.4454 -0.4294
vn 0.1077 0.5357 -0.8375
vn 0.7674 0.5514 -0.3273
vn 0.6552 0.5670 0.4992
vn -0.1167 0.5670 0.8154
vn -0.7764 0.5514 0.3051
vn -0.6643 0.5357 -0.5213
vn 0.0082 -0.9998 0.0200
vn 0.5780 0.5718 -0.5821
vn 0.7932 0.5718 0.2095
vn 0.2151 0.5718 0.7916
vn -0.5780 0.5718 0.5821
vn -0.7932 0.5718 -0.2095
vn -0.2151 0.5718 -0.7916
usemtl PineTreeUV
s off
f 1/1/1 2/2/1 4/3/1 3/4/1
f 3/5/2 4/6/2 6/7/2 5/8/2
f 5/8/3 6/7/3 8/9/3 7/10/3
f 7/11/4 8/12/4 10/13/4 9/14/4
f 4/15/5 2/16/5 12/17/5 10/18/5 8/19/5 6/20/5
f 9/14/6 10/13/6 12/21/6 11/22/6
f 11/23/7 12/24/7 2/2/7 1/1/7
f 1/25/8 3/26/8 5/27/8 7/28/8 9/29/8 11/30/8
f 13/31/9 14/32/9 15/33/9
f 15/34/10 14/35/10 16/36/10
f 16/36/11 14/35/11 17/37/11
f 17/37/12 14/35/12 18/38/12
f 18/38/13 14/35/13 19/39/13
f 19/40/14 14/32/14 13/31/14
f 13/41/8 15/42/8 16/43/8 17/44/8 18/45/8 19/46/8
f 20/47/15 21/48/15 22/49/15
f 22/49/16 21/48/16 23/50/16
f 23/50/17 21/48/17 24/51/17
f 24/51/18 21/48/18 25/52/18
f 25/52/19 21/48/19 26/53/19
f 26/53/20 21/48/20 20/47/20
f 20/54/21 22/55/21 23/56/21 24/57/21 25/58/21 26/59/21
f 27/60/22 28/61/22 29/62/22
f 29/62/23 28/61/23 30/63/23
f 30/63/24 28/61/24 31/64/24
f 31/64/25 28/61/25 32/65/25
f 32/65/26 28/61/26 33/66/26
f 33/66/27 28/61/27 27/60/27
f 27/67/8 29/68/8 30/69/8 31/70/8 32/71/8 33/72/8
f 34/73/28 35/74/28 36/75/28
f 36/75/29 35/74/29 37/76/29
f 37/76/30 35/74/30 38/77/30
f 38/77/31 35/74/31 39/78/31
f 39/78/32 35/74/32 40/79/32
f 40/79/33 35/74/33 34/73/33
f 34/80/34 36/81/34 37/82/34 38/83/34 39/84/34 40/85/34
f 41/86/35 42/87/35 43/88/35
f 43/88/36 42/87/36 44/89/36
f 44/89/37 42/87/37 45/90/37
f 45/90/38 42/87/38 46/91/38
f 46/91/39 42/87/39 47/92/39
f 47/92/40 42/87/40 41/86/40
f 41/93/8 43/94/8 44/95/8 45/96/8 46/97/8 47/98/8
